<mxfile host="app.diagrams.net" modified="2021-02-16T18:27:51.961Z" agent="5.0 (Windows)" etag="NSuD-rIyqQbajRCfj5Zf" version="14.3.2" type="github">
  <diagram id="OmEP-EovrhHBd6mhysP7" name="Page-1">
    <mxGraphModel dx="2249" dy="3101" grid="1" gridSize="10" guides="1" tooltips="1" connect="1" arrows="1" fold="1" page="1" pageScale="1" pageWidth="827" pageHeight="1169" math="0" shadow="0">
      <root>
        <mxCell id="0" />
        <mxCell id="1" parent="0" />
        <mxCell id="2QHrbUZuOZ-zPLDd1hFe-1" value="" style="shape=mxgraph.mockup.containers.marginRect;rectMarginTop=10;strokeWidth=1;dashed=0;rounded=1;arcSize=5;recursiveResize=0;labelBackgroundColor=#E3C35B;sketch=0;fontFamily=Times New Roman;fontSize=24;strokeColor=#6c8ebf;fillColor=#E3C35B;" parent="1" vertex="1">
          <mxGeometry x="-650" y="-2290" width="970" height="793" as="geometry" />
        </mxCell>
        <mxCell id="2QHrbUZuOZ-zPLDd1hFe-137" value="" style="shape=process;whiteSpace=wrap;html=1;backgroundOutline=1;labelBackgroundColor=#E3C35B;strokeWidth=2;fillColor=#E3C35B;fontSize=21;align=center;" parent="2QHrbUZuOZ-zPLDd1hFe-1" vertex="1">
          <mxGeometry x="80" y="652" width="760" height="90" as="geometry" />
        </mxCell>
        <mxCell id="2QHrbUZuOZ-zPLDd1hFe-3" value="Confirmation form" style="shape=rect;strokeColor=none;fillColor=#008cff;strokeWidth=1;dashed=0;rounded=1;arcSize=45;fontColor=#ffffff;fontSize=21;spacing=2;spacingTop=-2;align=center;autosize=1;spacingLeft=4;resizeWidth=0;resizeHeight=0;perimeter=none;direction=east;" parent="2QHrbUZuOZ-zPLDd1hFe-1" vertex="1">
          <mxGeometry x="505" y="42.5" width="270" height="57.5" as="geometry" />
        </mxCell>
        <mxCell id="2QHrbUZuOZ-zPLDd1hFe-5" value="" style="line;strokeWidth=2;html=1;rounded=0;labelBackgroundColor=#E3C35B;sketch=0;fillColor=#E3C35B;fontFamily=Times New Roman;fontSize=24;fontColor=#000000;" parent="2QHrbUZuOZ-zPLDd1hFe-1" vertex="1">
          <mxGeometry x="103" y="112.5" width="740" height="10" as="geometry" />
        </mxCell>
        <mxCell id="2QHrbUZuOZ-zPLDd1hFe-11" value="" style="line;strokeWidth=2;html=1;rounded=0;labelBackgroundColor=#E3C35B;sketch=0;fillColor=#E3C35B;fontFamily=Times New Roman;fontSize=24;fontColor=#000000;" parent="2QHrbUZuOZ-zPLDd1hFe-1" vertex="1">
          <mxGeometry x="70" y="633" width="780" height="10" as="geometry" />
        </mxCell>
        <mxCell id="2QHrbUZuOZ-zPLDd1hFe-82" value="" style="line;strokeWidth=2;html=1;rounded=0;labelBackgroundColor=#E3C35B;sketch=0;fillColor=#E3C35B;fontFamily=Times New Roman;fontSize=24;fontColor=#000000;" parent="2QHrbUZuOZ-zPLDd1hFe-1" vertex="1">
          <mxGeometry x="70" y="753" width="780" height="10" as="geometry" />
        </mxCell>
        <mxCell id="2QHrbUZuOZ-zPLDd1hFe-90" style="edgeStyle=orthogonalEdgeStyle;curved=0;rounded=1;sketch=0;orthogonalLoop=1;jettySize=auto;html=1;exitX=1;exitY=0.75;exitDx=0;exitDy=0;entryX=1;entryY=1;entryDx=0;entryDy=0;strokeColor=#182E3E;fontFamily=Times New Roman;fontSize=24;fontColor=#000000;" parent="2QHrbUZuOZ-zPLDd1hFe-1" edge="1">
          <mxGeometry relative="1" as="geometry">
            <mxPoint x="130" y="1225" as="sourcePoint" />
            <mxPoint x="130" y="1230" as="targetPoint" />
          </mxGeometry>
        </mxCell>
        <mxCell id="2QHrbUZuOZ-zPLDd1hFe-111" value="" style="shape=mxgraph.signs.transportation.car_4;html=1;pointerEvents=1;fillColor=#000000;strokeColor=none;verticalLabelPosition=bottom;verticalAlign=top;align=center;" parent="2QHrbUZuOZ-zPLDd1hFe-1" vertex="1">
          <mxGeometry x="142" y="42.5" width="84" height="70" as="geometry" />
        </mxCell>
        <mxCell id="2QHrbUZuOZ-zPLDd1hFe-112" value="" style="rounded=1;whiteSpace=wrap;html=1;fontSize=21;align=center;fillColor=#E3C35B;strokeWidth=2;" parent="2QHrbUZuOZ-zPLDd1hFe-1" vertex="1">
          <mxGeometry x="50" y="180" width="830" height="413" as="geometry" />
        </mxCell>
        <mxCell id="2QHrbUZuOZ-zPLDd1hFe-114" value="&lt;font style=&quot;font-size: 32px&quot;&gt;&lt;b&gt;&lt;font style=&quot;font-size: 32px&quot;&gt;Car Servise&lt;/font&gt;&lt;/b&gt;&lt;/font&gt;" style="text;html=1;strokeColor=none;fillColor=none;align=center;verticalAlign=middle;whiteSpace=wrap;rounded=0;labelBackgroundColor=#E3C35B;fontSize=21;" parent="2QHrbUZuOZ-zPLDd1hFe-1" vertex="1">
          <mxGeometry x="250" y="67.5" width="200" height="20" as="geometry" />
        </mxCell>
        <mxCell id="2QHrbUZuOZ-zPLDd1hFe-117" value="Customer" style="text;html=1;strokeColor=none;fillColor=none;align=center;verticalAlign=middle;whiteSpace=wrap;rounded=0;labelBackgroundColor=#E3C35B;fontSize=30;fontStyle=1;fontFamily=Times New Roman;" parent="2QHrbUZuOZ-zPLDd1hFe-1" vertex="1">
          <mxGeometry x="140" y="143" width="40" height="20" as="geometry" />
        </mxCell>
        <mxCell id="2QHrbUZuOZ-zPLDd1hFe-122" value="Name Surname" style="rounded=0;whiteSpace=wrap;html=1;labelBackgroundColor=#E3C35B;strokeWidth=2;fillColor=#E3C35B;fontSize=21;align=center;" parent="2QHrbUZuOZ-zPLDd1hFe-1" vertex="1">
          <mxGeometry x="180" y="230" width="260" height="50" as="geometry" />
        </mxCell>
        <mxCell id="2QHrbUZuOZ-zPLDd1hFe-123" value="Phone" style="rounded=0;whiteSpace=wrap;html=1;labelBackgroundColor=#E3C35B;strokeWidth=2;fillColor=#E3C35B;fontSize=21;align=center;" parent="2QHrbUZuOZ-zPLDd1hFe-1" vertex="1">
          <mxGeometry x="310" y="280" width="130" height="50" as="geometry" />
        </mxCell>
        <mxCell id="2QHrbUZuOZ-zPLDd1hFe-124" value="ID" style="rounded=0;whiteSpace=wrap;html=1;labelBackgroundColor=#E3C35B;strokeWidth=2;fillColor=#E3C35B;fontSize=21;align=center;" parent="2QHrbUZuOZ-zPLDd1hFe-1" vertex="1">
          <mxGeometry x="180" y="280" width="130" height="50" as="geometry" />
        </mxCell>
        <mxCell id="2QHrbUZuOZ-zPLDd1hFe-125" value="Address" style="rounded=0;whiteSpace=wrap;html=1;labelBackgroundColor=#E3C35B;strokeWidth=2;fillColor=#E3C35B;fontSize=21;align=center;" parent="2QHrbUZuOZ-zPLDd1hFe-1" vertex="1">
          <mxGeometry x="510" y="230" width="260" height="50" as="geometry" />
        </mxCell>
        <mxCell id="2QHrbUZuOZ-zPLDd1hFe-126" value="Email" style="rounded=0;whiteSpace=wrap;html=1;labelBackgroundColor=#E3C35B;strokeWidth=2;fillColor=#E3C35B;fontSize=21;align=center;" parent="2QHrbUZuOZ-zPLDd1hFe-1" vertex="1">
          <mxGeometry x="510" y="280" width="260" height="50" as="geometry" />
        </mxCell>
        <mxCell id="2QHrbUZuOZ-zPLDd1hFe-127" value="Type of service" style="rounded=0;whiteSpace=wrap;html=1;labelBackgroundColor=#E3C35B;strokeWidth=2;fillColor=#E3C35B;fontSize=21;align=center;" parent="2QHrbUZuOZ-zPLDd1hFe-1" vertex="1">
          <mxGeometry x="320" y="350" width="320" height="50" as="geometry" />
        </mxCell>
        <mxCell id="2QHrbUZuOZ-zPLDd1hFe-128" value="Vehicle" style="rounded=0;whiteSpace=wrap;html=1;labelBackgroundColor=#E3C35B;strokeWidth=2;fillColor=#E3C35B;fontSize=21;align=center;" parent="2QHrbUZuOZ-zPLDd1hFe-1" vertex="1">
          <mxGeometry x="320" y="420" width="320" height="50" as="geometry" />
        </mxCell>
        <mxCell id="2QHrbUZuOZ-zPLDd1hFe-129" value="Estimated Date" style="rounded=0;whiteSpace=wrap;html=1;labelBackgroundColor=#E3C35B;strokeWidth=2;fillColor=#E3C35B;fontSize=21;align=center;" parent="2QHrbUZuOZ-zPLDd1hFe-1" vertex="1">
          <mxGeometry x="170" y="490" width="200" height="50" as="geometry" />
        </mxCell>
        <mxCell id="2QHrbUZuOZ-zPLDd1hFe-130" value="Cost" style="rounded=0;whiteSpace=wrap;html=1;labelBackgroundColor=#E3C35B;strokeWidth=2;fillColor=#E3C35B;fontSize=21;align=center;" parent="2QHrbUZuOZ-zPLDd1hFe-1" vertex="1">
          <mxGeometry x="580" y="490" width="200" height="50" as="geometry" />
        </mxCell>
        <mxCell id="2QHrbUZuOZ-zPLDd1hFe-135" value="" style="shape=mxgraph.bpmn.shape;html=1;verticalLabelPosition=bottom;labelBackgroundColor=#ffffff;verticalAlign=top;align=center;perimeter=ellipsePerimeter;outlineConnect=0;outline=standard;symbol=message;strokeWidth=2;fillColor=#E3C35B;fontSize=21;" parent="2QHrbUZuOZ-zPLDd1hFe-1" vertex="1">
          <mxGeometry x="93" y="668" width="50" height="50" as="geometry" />
        </mxCell>
        <mxCell id="2QHrbUZuOZ-zPLDd1hFe-136" value="" style="shape=mxgraph.signs.travel.information_1;html=1;pointerEvents=1;fillColor=#000000;strokeColor=none;verticalLabelPosition=bottom;verticalAlign=top;align=center;labelBackgroundColor=#E3C35B;fontSize=21;" parent="2QHrbUZuOZ-zPLDd1hFe-1" vertex="1">
          <mxGeometry x="772" y="663.5" width="60" height="61" as="geometry" />
        </mxCell>
        <mxCell id="2QHrbUZuOZ-zPLDd1hFe-139" value="Car Service" style="text;html=1;strokeColor=none;fillColor=none;align=center;verticalAlign=middle;whiteSpace=wrap;rounded=0;labelBackgroundColor=#E3C35B;fontSize=21;" parent="2QHrbUZuOZ-zPLDd1hFe-1" vertex="1">
          <mxGeometry x="170" y="667" width="120" height="20" as="geometry" />
        </mxCell>
        <mxCell id="2QHrbUZuOZ-zPLDd1hFe-140" value="Address" style="text;html=1;strokeColor=none;fillColor=none;align=center;verticalAlign=middle;whiteSpace=wrap;rounded=0;labelBackgroundColor=#E3C35B;fontSize=21;" parent="2QHrbUZuOZ-zPLDd1hFe-1" vertex="1">
          <mxGeometry x="190" y="687" width="50" height="20" as="geometry" />
        </mxCell>
        <mxCell id="2QHrbUZuOZ-zPLDd1hFe-138" value="City" style="text;html=1;strokeColor=none;fillColor=none;align=center;verticalAlign=middle;whiteSpace=wrap;rounded=0;labelBackgroundColor=#E3C35B;fontSize=21;" parent="2QHrbUZuOZ-zPLDd1hFe-1" vertex="1">
          <mxGeometry x="170" y="707" width="50" height="20" as="geometry" />
        </mxCell>
        <mxCell id="2QHrbUZuOZ-zPLDd1hFe-141" value="" style="shape=mxgraph.signs.tech.telephone_3;html=1;pointerEvents=1;fillColor=#000000;strokeColor=none;verticalLabelPosition=bottom;verticalAlign=top;align=center;labelBackgroundColor=#E3C35B;fontSize=21;" parent="2QHrbUZuOZ-zPLDd1hFe-1" vertex="1">
          <mxGeometry x="330" y="666" width="40" height="51" as="geometry" />
        </mxCell>
        <mxCell id="2QHrbUZuOZ-zPLDd1hFe-142" value="+420123456789" style="text;html=1;strokeColor=none;fillColor=none;align=center;verticalAlign=middle;whiteSpace=wrap;rounded=0;labelBackgroundColor=#E3C35B;fontSize=21;" parent="2QHrbUZuOZ-zPLDd1hFe-1" vertex="1">
          <mxGeometry x="430" y="682" width="40" height="20" as="geometry" />
        </mxCell>
        <mxCell id="2QHrbUZuOZ-zPLDd1hFe-143" value="www.carservice.com" style="text;html=1;strokeColor=none;fillColor=none;align=center;verticalAlign=middle;whiteSpace=wrap;rounded=0;labelBackgroundColor=#E3C35B;fontSize=21;" parent="2QHrbUZuOZ-zPLDd1hFe-1" vertex="1">
          <mxGeometry x="640" y="681.5" width="30" height="20" as="geometry" />
        </mxCell>
      </root>
    </mxGraphModel>
  </diagram>
</mxfile>
